<svg xmlns="http://www.w3.org/2000/svg" viewBox="0 0 24 24"
     fill="none" stroke="currentColor" stroke-width="1.5"
     stroke-linecap="round" stroke-linejoin="round">
  <!-- tuning pegs area -->
  <line x1="19" y1="2" x2="21" y2="4"/>
  <line x1="20" y1="2" x2="22" y2="4"/>
  <!-- neck -->
  <line x1="19.5" y1="3" x2="12" y2="10.5"/>
  <!-- body -->
  <path d="M12 10.5c-1.5-0.5-3.5 0.5-4.5 2s-1.5 3.5-0.5 5c0.8 1.2 1 2.5 0.2 3.5 1.5 0.5 3-0.2 3.8-1.2 1 1 2.8 1.2 4 0.2-0.5-1.2 0-2.5 1-3.3 1.5-1 2-3.2 1-5s-3-2-5-1.2z"/>
  <!-- sound hole -->
  <circle cx="11" cy="15.5" r="1.2"/>
</svg>
